<svg xmlns="http://www.w3.org/2000/svg" viewBox="0 0 160 160" width="160" height="160">
  <defs>
    <radialGradient id="glow-icon" cx="50%" cy="40%" r="28%">
      <stop offset="0%" style="stop-color:#FAF7F2;stop-opacity:0.4" />
      <stop offset="100%" style="stop-color:#FAF7F2;stop-opacity:0" />
    </radialGradient>
  </defs>

  <!-- Inner glow -->
  <ellipse cx="80" cy="58" rx="28" ry="38" fill="url(#glow-icon)"/>

  <!-- Figure -->
  <circle cx="80" cy="28" r="14" fill="#FAF7F2" opacity="0.92"/>
  <rect x="75" y="42" width="10" height="8" rx="1" fill="#FAF7F2" opacity="0.88"/>
  <path d="M60 50 Q80 46 100 50 L103 105 Q80 108 57 105 Z" fill="#FAF7F2" opacity="0.88"/>
  <path d="M60 55 L45 85 L49 87 L62 62" fill="#FAF7F2" opacity="0.8"/>
  <path d="M100 55 L115 85 L111 87 L98 62" fill="#FAF7F2" opacity="0.8"/>
  <circle cx="43" cy="87" r="3" fill="#FAF7F2" opacity="0.65"/>
  <circle cx="117" cy="87" r="3" fill="#FAF7F2" opacity="0.65"/>

  <!-- Armor left -->
  <g opacity="0.7" transform="rotate(-18, 30, 48)">
    <path d="M24 42 L18 46 L20 58 L30 59 L33 50 Z" fill="#8FA68A"/>
  </g>
  <g opacity="0.45" transform="rotate(-30, 16, 75)">
    <path d="M12 70 L6 75 L10 84 L18 80 Z" fill="#8FA68A"/>
  </g>

  <!-- Shoulder left -->
  <path d="M48 46 L37 40 L35 49 L45 51 Z" fill="#C4A1A1" opacity="0.5" transform="rotate(-18, 41, 45)"/>

  <!-- Armor right -->
  <g opacity="0.7" transform="rotate(18, 130, 48)">
    <path d="M126 42 L132 46 L130 58 L120 59 L117 50 Z" fill="#8FA68A"/>
  </g>
  <g opacity="0.45" transform="rotate(30, 144, 75)">
    <path d="M140 70 L146 75 L142 84 L134 80 Z" fill="#8FA68A"/>
  </g>

  <!-- Shoulder right -->
  <path d="M112 46 L123 40 L125 49 L115 51 Z" fill="#C4A1A1" opacity="0.5" transform="rotate(18, 119, 45)"/>

  <!-- Dust -->
  <circle cx="26" cy="66" r="1" fill="#C4A1A1" opacity="0.4"/>
  <circle cx="134" cy="68" r="1" fill="#C4A1A1" opacity="0.4"/>

  <!-- BDM text -->
  <text x="80" y="135" font-family="Georgia, serif" font-size="16" font-weight="bold" fill="#FAF7F2" letter-spacing="5" text-anchor="middle">BDM</text>

  <!-- Subtitle -->
  <text x="80" y="152" font-family="Georgia, serif" font-size="6" fill="#C4A1A1" letter-spacing="2" text-anchor="middle" opacity="0.6">BUILT DIFFERENT MOVEMENT</text>
</svg>